<svg width="32" height="33" viewBox="0 0 32 33" fill="none" xmlns="http://www.w3.org/2000/svg">
<circle cx="16" cy="16.1359" r="16" fill="#03A9F4"/>
<path d="M24 11.6749C23.3981 11.9374 22.7616 12.1119 22.11 12.1929C22.7967 11.7855 23.3101 11.1405 23.553 10.3799C22.91 10.7613 22.2065 11.0298 21.473 11.1739C21.0232 10.6937 20.4395 10.3598 19.7975 10.2157C19.1555 10.0716 18.485 10.1239 17.8732 10.3657C17.2613 10.6076 16.7363 11.0279 16.3664 11.5721C15.9965 12.1162 15.7988 12.759 15.799 13.4169C15.799 13.6769 15.821 13.9269 15.875 14.1649C14.5701 14.1009 13.2934 13.7623 12.1283 13.171C10.9632 12.5798 9.93609 11.7493 9.114 10.7339C8.69282 11.4558 8.56261 12.311 8.74988 13.1255C8.93716 13.94 9.42783 14.6525 10.122 15.1179C9.60276 15.104 9.09447 14.9654 8.64 14.7139V14.7499C8.64087 15.5073 8.90267 16.2414 9.38132 16.8284C9.85997 17.4154 10.5262 17.8196 11.268 17.9729C10.9874 18.0469 10.6982 18.0832 10.408 18.0809C10.1996 18.0846 9.99139 18.0658 9.787 18.0249C9.99894 18.6759 10.4075 19.2453 10.9564 19.6545C11.5053 20.0637 12.1676 20.2927 12.852 20.3099C11.6909 21.218 10.259 21.7105 8.785 21.7089C8.516 21.7089 8.258 21.6969 8 21.6639C9.49988 22.6305 11.2477 23.1417 13.032 23.1359C19.068 23.1359 22.368 18.1359 22.368 13.8019C22.368 13.6569 22.363 13.5169 22.356 13.3779C23.003 12.9149 23.5601 12.3378 24 11.6749Z" fill="white"/>
</svg>