<svg width="32" height="33" viewBox="0 0 32 33" fill="none" xmlns="http://www.w3.org/2000/svg">
<circle cx="16" cy="16.1359" r="16" fill="#814BF6"/>
<g clip-path="url(#clip0)">
<path d="M19 8.13593C17.7 8.13593 16.4 8.63593 15.5 9.63593L14.3 10.7359C13.9 11.1359 13.9 11.7359 14.3 12.1359C14.7 12.5359 15.3 12.5359 15.7 12.1359L16.9 10.9359C18 9.83593 20 9.83593 21.1 10.9359C21.7 11.5359 22 12.3359 22 13.1359C22 13.9359 21.7 14.7359 21.1 15.2359L20 16.4359C19.6 16.8359 19.6 17.4359 20 17.8359C20.2 18.0359 20.5 18.1359 20.7 18.1359C20.9 18.1359 21.2 18.0359 21.4 17.8359L22.6 16.6359C23.5 15.7359 24 14.4359 24 13.1359C24 11.8359 23.5 10.5359 22.5 9.63593C21.6 8.63593 20.3 8.13593 19 8.13593Z" fill="white"/>
<path d="M16.3 20.1359L15.1 21.3359C14 22.4359 12 22.4359 10.9 21.3359C10.3 20.7359 10 19.9359 10 19.1359C10 18.3359 10.3 17.5359 10.9 17.0359L12 15.8359C12.4 15.4359 12.4 14.8359 12 14.4359C11.6 14.0359 11 14.0359 10.6 14.4359L9.5 15.6359C8.5 16.5359 8 17.8359 8 19.1359C8 20.4359 8.5 21.7359 9.5 22.6359C10.4 23.6359 11.7 24.1359 13 24.1359C14.3 24.1359 15.6 23.6359 16.5 22.6359L17.7 21.4359C18.1 21.0359 18.1 20.4359 17.7 20.0359C17.3 19.6359 16.7 19.7359 16.3 20.1359Z" fill="white"/>
<path d="M17.3999 13.3359L13.1999 17.5359C12.7999 17.9359 12.7999 18.536 13.1999 18.936C13.3999 19.136 13.6999 19.236 13.8999 19.236C14.0999 19.236 14.3999 19.136 14.5999 18.936L18.7999 14.7359C19.1999 14.3359 19.1999 13.7359 18.7999 13.3359C18.3999 12.9359 17.7999 12.9359 17.3999 13.3359Z" fill="white"/>
</g>
<defs>
<clipPath id="clip0">
<rect width="16" height="16" fill="white" transform="translate(8 8.13593)"/>
</clipPath>
</defs>
</svg>