<svg width="635" height="429" viewBox="0 0 635 429" fill="none" xmlns="http://www.w3.org/2000/svg">
<g opacity="0.3" filter="url(#filter0_d)">
<path d="M11 295H10.5V294.793L10.6464 294.646L11 295ZM123.5 182.5L123.146 182.146L123.293 182H123.5V182.5ZM624 82.5H624.5V82.7027L624.359 82.8481L624 82.5ZM11.5 418.5C11.5 418.776 11.2761 419 11 419C10.7239 419 10.5 418.776 10.5 418.5H11.5ZM527 182.5L527.359 182.848L527.212 183H527V182.5ZM10.6464 294.646L123.146 182.146L123.854 182.854L11.3536 295.354L10.6464 294.646ZM623.5 82.5V10H624.5V82.5H623.5ZM11.5 295V418.5H10.5V295H11.5ZM123.5 182H527V183H123.5V182ZM526.641 182.152L623.641 82.1519L624.359 82.8481L527.359 182.848L526.641 182.152Z" fill="#814BF6"/>
</g>
<line x1="624" y1="10" x2="624" y2="68" stroke="url(#paint0_linear)"/>
<g filter="url(#filter1_f)">
<line x1="153.5" y1="182.5" x2="250.5" y2="182.5" stroke="url(#paint1_linear)" stroke-width="3" stroke-linecap="round"/>
</g>
<line x1="153.5" y1="182.5" x2="250.5" y2="182.5" stroke="url(#paint2_linear)" stroke-width="3" stroke-linecap="round"/>
<defs>
<filter id="filter0_d" x="0.5" y="0" width="634" height="429" filterUnits="userSpaceOnUse" color-interpolation-filters="sRGB">
<feFlood flood-opacity="0" result="BackgroundImageFix"/>
<feColorMatrix in="SourceAlpha" type="matrix" values="0 0 0 0 0 0 0 0 0 0 0 0 0 0 0 0 0 0 127 0" result="hardAlpha"/>
<feOffset/>
<feGaussianBlur stdDeviation="5"/>
<feComposite in2="hardAlpha" operator="out"/>
<feColorMatrix type="matrix" values="0 0 0 0 0.666447 0 0 0 0 0.5125 0 0 0 0 1 0 0 0 1 0"/>
<feBlend mode="normal" in2="BackgroundImageFix" result="effect1_dropShadow"/>
<feBlend mode="normal" in="SourceGraphic" in2="effect1_dropShadow" result="shape"/>
</filter>
<filter id="filter1_f" x="138" y="167" width="128" height="31" filterUnits="userSpaceOnUse" color-interpolation-filters="sRGB">
<feFlood flood-opacity="0" result="BackgroundImageFix"/>
<feBlend mode="normal" in="SourceGraphic" in2="BackgroundImageFix" result="shape"/>
<feGaussianBlur stdDeviation="7" result="effect1_foregroundBlur"/>
</filter>
<linearGradient id="paint0_linear" x1="622.5" y1="11.5" x2="622.5" y2="69" gradientUnits="userSpaceOnUse">
<stop stop-color="#00BCFF"/>
<stop offset="1" stop-color="#00BCFF" stop-opacity="0"/>
</linearGradient>
<linearGradient id="paint1_linear" x1="245.21" y1="184" x2="152" y2="184" gradientUnits="userSpaceOnUse">
<stop stop-color="#00BCFF"/>
<stop offset="1" stop-color="#00BCFF" stop-opacity="0"/>
</linearGradient>
<linearGradient id="paint2_linear" x1="245.21" y1="184" x2="152" y2="184" gradientUnits="userSpaceOnUse">
<stop stop-color="#00BCFF"/>
<stop offset="1" stop-color="#00BCFF" stop-opacity="0"/>
</linearGradient>
</defs>
</svg>
