<svg width="32" height="33" viewBox="0 0 32 33" fill="none" xmlns="http://www.w3.org/2000/svg">
<circle cx="16" cy="16.1359" r="16" fill="#1976D2"/>
<g clip-path="url(#clip0)">
<path d="M8 13.1359H11.578V24.1359H8V13.1359Z" fill="white"/>
<path d="M21.324 13.2649C21.286 13.2529 21.25 13.2399 21.21 13.2289C21.162 13.2181 21.1136 13.2087 21.065 13.2009C20.8537 13.1577 20.6386 13.136 20.423 13.1359C18.337 13.1359 17.014 14.6529 16.578 15.2389V13.1359H13V24.1359H16.578V18.1359C16.578 18.1359 19.282 14.3699 20.423 17.1359V24.1359H24V16.7129C23.9985 15.9231 23.735 15.156 23.2507 14.532C22.7664 13.908 22.0888 13.4624 21.324 13.2649Z" fill="white"/>
<path d="M9.75 11.6359C10.7165 11.6359 11.5 10.8524 11.5 9.88593C11.5 8.91943 10.7165 8.13593 9.75 8.13593C8.7835 8.13593 8 8.91943 8 9.88593C8 10.8524 8.7835 11.6359 9.75 11.6359Z" fill="white"/>
</g>
<defs>
<clipPath id="clip0">
<rect width="16" height="16" fill="white" transform="translate(8 8.13593)"/>
</clipPath>
</defs>
</svg>